<svg height='100px' width='100px'  fill="#000000" xmlns="http://www.w3.org/2000/svg" xmlns:xlink="http://www.w3.org/1999/xlink" xml:space="preserve" version="1.1" style="shape-rendering:geometricPrecision;text-rendering:geometricPrecision;image-rendering:optimizeQuality;" viewBox="0 0 291 188" x="0px" y="0px" fill-rule="evenodd" clip-rule="evenodd"><defs><style type="text/css">
   
    .fil0 {fill:#000000}
   
  </style></defs><g><path class="fil0" d="M14 0l264 0c7,0 13,6 13,14l0 161c0,7 -6,13 -13,13l-264 0c-8,0 -14,-6 -14,-13l0 -161c0,-8 6,-14 14,-14zm231 112l0 65 33 0c1,0 2,-1 2,-2l0 -161c0,-2 -1,-2 -2,-2l-20 0 0 94c0,8 -8,6 -13,6zm-12 0c-5,0 -13,2 -13,-6l0 -94 -8 0 0 94c0,8 -9,6 -14,6l0 65 35 0 0 -65zm-60 -100l-8 0 0 94c0,8 -8,6 -14,6l0 65 36 0 0 -65c-6,0 -14,2 -14,-6l0 -94zm-33 100c-5,0 -14,2 -14,-6l0 -94 -21 0 0 165 35 0 0 -65zm-107 -100l-19 0c-2,0 -2,0 -2,2l0 161c0,1 0,2 2,2l33 0 0 -65c-5,0 -14,2 -14,-6l0 -94zm25 100l0 65 35 0 0 -165 -21 0 0 94c0,8 -9,6 -14,6z"></path></g></svg>